<svg width="20" height="20" viewBox="0 0 20 20" fill="none" xmlns="http://www.w3.org/2000/svg">
<g clip-path="url(#clip0_3_157)">
<path d="M2.93008 17.07C1.97498 16.1475 1.21316 15.0441 0.689065 13.824C0.164975 12.604 -0.110887 11.2918 -0.122425 9.964C-0.133963 8.63621 0.119054 7.31941 0.621863 6.09045C1.12467 4.86148 1.8672 3.74496 2.80613 2.80604C3.74506 1.86711 4.86158 1.12458 6.09054 0.621771C7.3195 0.118962 8.6363 -0.134055 9.96409 -0.122517C11.2919 -0.110979 12.6041 0.164884 13.8241 0.688974C15.0442 1.21306 16.1476 1.97489 17.0701 2.92999C18.8917 4.81601 19.8996 7.34203 19.8768 9.964C19.854 12.586 18.8023 15.0941 16.9483 16.9482C15.0942 18.8023 12.5861 19.8539 9.96409 19.8767C7.34212 19.8995 4.8161 18.8916 2.93008 17.07ZM9.00008 4.99999V11H11.0001V4.99999H9.00008ZM9.00008 13V15H11.0001V13H9.00008Z" fill="white"/>
</g>
<defs>
<clipPath id="clip0_3_157">
<rect width="20" height="20" fill="white"/>
</clipPath>
</defs>
</svg>
