<svg width="30" height="30" viewBox="0 0 30 30" fill="none" xmlns="http://www.w3.org/2000/svg">
<g clip-path="url(#clip0_61_235)">
<path fill-rule="evenodd" clip-rule="evenodd" d="M8.65746 16.3151C8.23647 15.8936 8 15.3222 8 14.7265C8 14.1307 8.23647 13.5594 8.65746 13.1378L17.1342 4.65812C17.5559 4.23659 18.1278 3.99986 18.7241 4C19.0193 4.00007 19.3117 4.05829 19.5844 4.17134C19.8572 4.28439 20.105 4.45005 20.3137 4.65887C20.5224 4.86769 20.688 5.11558 20.8009 5.38838C20.9138 5.66117 20.9719 5.95354 20.9718 6.24879C20.9717 6.54403 20.9135 6.83637 20.8005 7.10912C20.6874 7.38186 20.5218 7.62967 20.3129 7.83839L13.4249 14.7265L20.3129 21.6146C20.5277 21.8218 20.6991 22.0698 20.8171 22.344C20.935 22.6182 20.9972 22.9132 20.9999 23.2117C21.0026 23.5102 20.9459 23.8062 20.833 24.0826C20.7201 24.3589 20.5533 24.61 20.3423 24.8212C20.1313 25.0323 19.8804 25.1994 19.6042 25.3125C19.328 25.4257 19.032 25.4827 18.7335 25.4803C18.435 25.4778 18.1399 25.416 17.8656 25.2983C17.5913 25.1806 17.3431 25.0094 17.1357 24.7948L8.65446 16.3151H8.65746Z" fill="white"/>
</g>
<defs>
<clipPath id="clip0_61_235">
<rect width="30" height="30" fill="white"/>
</clipPath>
</defs>
</svg>
